<?xml version="1.0" standalone="no"?>
<!DOCTYPE svg PUBLIC "-//W3C//DTD SVG 20010904//EN"
 "http://www.w3.org/TR/2001/REC-SVG-20010904/DTD/svg10.dtd">
<svg version="1.0" xmlns="http://www.w3.org/2000/svg"
 width="64.000000pt" height="64.000000pt" viewBox="0 0 64.000000 64.000000"
 preserveAspectRatio="xMidYMid meet">

<g transform="translate(0.000000,64.000000) scale(0.100000,-0.100000)"
fill="#000000" stroke="none">
<path d="M235 511 c-68 -11 -81 -18 -96 -53 -17 -41 -17 -235 0 -276 18 -44
57 -56 181 -56 177 0 194 17 194 194 0 121 -13 163 -52 179 -37 14 -166 21
-227 12z m200 -191 l0 -115 -115 0 -115 0 -3 104 c-1 58 0 111 2 118 4 11 31
13 118 11 l113 -3 0 -115z"/>
<path d="M396 411 c-4 -5 -2 -12 3 -15 5 -4 12 -2 15 3 4 5 2 12 -3 15 -5 4
-12 2 -15 -3z"/>
<path d="M280 397 c-52 -27 -62 -104 -19 -143 30 -27 93 -25 121 4 30 29 31
94 3 122 -26 26 -74 34 -105 17z m65 -77 c0 -18 -6 -26 -23 -28 -13 -2 -25 3
-28 12 -10 26 4 48 28 44 17 -2 23 -10 23 -28z"/>
</g>
</svg>
