<?xml version="1.0" standalone="no"?>
<!DOCTYPE svg PUBLIC "-//W3C//DTD SVG 20010904//EN"
 "http://www.w3.org/TR/2001/REC-SVG-20010904/DTD/svg10.dtd">
<svg version="1.0" xmlns="http://www.w3.org/2000/svg"
 width="256.000000pt" height="256.000000pt" viewBox="0 0 256.000000 256.000000"
 preserveAspectRatio="xMidYMid meet">

<g transform="translate(0.000000,256.000000) scale(0.100000,-0.100000)"
fill="#000000" stroke="none">
<path d="M1089 2539 c-172 -18 -293 -62 -364 -134 -54 -54 -61 -85 -57 -272
l3 -153 305 0 304 0 0 -45 0 -44 -482 -3 c-476 -3 -484 -3 -531 -25 -69 -33
-149 -113 -185 -186 -53 -108 -64 -166 -69 -362 -4 -155 -2 -194 16 -280 27
-133 75 -228 146 -293 75 -69 119 -82 277 -82 l128 0 0 183 c0 204 10 257 62
340 35 55 92 97 161 121 40 14 101 16 395 16 193 0 376 5 412 11 84 13 175 63
217 118 59 77 63 107 63 485 0 336 -1 342 -24 391 -53 116 -200 189 -431 215
-102 11 -235 11 -346 -1z m-109 -194 c41 -21 60 -53 60 -101 0 -104 -122 -150
-196 -73 -86 90 24 232 136 174z"/>
</g>
</svg>
